<svg xmlns="http://www.w3.org/2000/svg" fill="none" viewBox="0 0 7253.9 7922.41">
  <path
    d="M3461 7906.57C3133 7855.57 2822 7722.57 2300 7407.57C1497 6924.57 515 6313.57 399 6226.57C184 6064.57 71 5899.57 18 5667.57C1 5591.57 0 5505.57 0 4047.57C0 3200.57 3 2461.57 7 2405.57C37 1971.57 271 1679.57 750 1479.57C783 1466.57 820 1451.57 832 1448.57L854 1441.57L858 3229.57C861 4859.57 863 5025.57 878 5102.57C952 5471.57 1087 5609.57 1810 6047.57C2348 6373.57 2457 6440.57 2730 6612.57C3108 6850.57 3229 6924.57 3322 6970.57C3719 7170.57 4052 7034.57 4167 6626.57L4190 6547.57L4193 5525.57L4196 4502.57H3055V5087.57C3055 5409.57 3052 5672.57 3049 5672.57C3025 5672.57 2668 5544.57 2591 5508.57C2276 5361.57 2142 5177.57 2094 4822.57C2077 4702.57 2069 1115.57 2085 1022.57C2115 852.568 2260 641.568 2468 466.568C3076 -44.4318 3682 -132.432 4394 186.568C4560 261.568 4665 321.568 5020 542.568C5185 644.568 5498 836.568 5715 967.568C6520 1453.57 6761 1604.57 6877 1699.57C7061 1849.57 7177 2028.57 7232 2250.57C7247 2311.57 7249 2455.57 7253 3817.57C7256 5335.57 7253 5514.57 7220 5674.57C7141 6052.57 6917 6305.57 6516 6468.57L6410 6512.57L6405 4789.57C6399 3087.57 6399 3066.57 6378 2977.57C6333 2783.57 6270 2638.57 6162 2477.57C6088 2367.57 5874 2151.57 5759 2070.57C5548 1920.57 4251 1146.57 3998 1018.57C3829 933.568 3688 898.568 3547 904.568C3343 914.568 3211 1012.57 3126 1215.57C3059 1378.57 3061 1331.57 3058 2450.57L3054 3462.57H4195V2302.57L4218 2307.57C4450 2358.57 4573 2396.57 4700 2459.57C4959 2586.57 5094 2770.57 5152 3074.57C5167 3148.57 5169 3373.57 5172 5070.57C5176 7179.57 5180 7034.57 5115 7169.57C5010 7384.57 4523 7731.57 4155 7852.57C3954 7918.57 3678 7940.57 3461 7906.57Z"
    fill="#EC642A"/>
</svg>
