<svg xmlns="http://www.w3.org/2000/svg" class="img-fluid" viewBox="5 7.43 24382.08 8099.13">
  <g style="transform:none" fill="#fff">
    <path
      d="M9180 8100c-184-25-341-74-501-157-141-73-251-157-384-294-161-167-285-365-364-581l-21-58h637l39 66c91 155 219 274 379 350 130 62 231 84 405 91 170 6 282-12 415-67 221-92 459-321 567-545 45-95 67-229 68-412v-112l-112 76c-309 209-635 297-1009 272-386-25-713-175-993-455-293-293-439-620-467-1044-6-99-9-433-7-841l3-675 30-60c27-51 38-62 89-89 59-30 60-30 257-33l198-4 4 889c3 871 3 890 24 968 80 296 272 534 538 666 156 77 227 92 435 93 153 1 186-2 259-22 175-48 323-134 456-267 130-131 217-276 266-450l23-80 3-899 4-898 202 4c188 3 205 5 250 27 60 29 102 85 117 155 8 37 10 476 7 1492-3 1549-2 1494-56 1741-44 202-166 415-360 626-249 274-524 437-861 512-87 19-436 29-540 15zM12875 6729c-371-25-704-180-979-455-284-284-440-623-465-1013-33-512 129-936 490-1287 246-239 511-372 844-425 114-18 389-16 500 4 247 45 470 138 669 282l76 54V2560h183c217 0 271 11 328 69 73 72 69 0 69 1368 0 792-4 1258-11 1321-35 330-169 630-388 875-350 391-792 571-1316 536zm390-609c282-77 535-291 660-562 54-117 77-224 83-378 5-161-7-250-52-383-45-132-113-242-219-353-146-154-276-237-454-290-107-32-327-44-449-24-420 67-767 432-825 866-15 112-6 282 20 389 69 280 265 528 521 659 165 85 272 107 485 102 113-3 169-9 230-26zM16465 6729c-371-25-704-180-979-455-284-284-440-623-465-1013-33-512 129-936 490-1287 239-232 506-369 811-419 340-55 674-8 959 134 175 88 308 189 463 352 243 255 388 566 425 911 15 130 14 1546 0 1608-16 70-50 114-115 146-55 27-63 28-256 32l-198 5v-362l-112 76c-310 210-643 298-1023 272zm390-609c282-77 535-291 660-562 54-117 77-224 83-378 5-161-7-250-52-383-45-132-113-242-219-353-146-154-276-237-454-290-107-32-327-44-449-24-420 67-767 432-825 866-15 112-6 282 20 389 69 280 265 528 521 659 165 85 272 107 485 102 113-3 169-9 230-26zM19430 6730c-393-38-720-338-807-740-17-80-18-172-18-1665V2745l26-56c51-108 110-129 366-129h183v1240h1050v590h-1051l3 763c3 707 5 765 21 809 26 66 86 131 149 159l53 24 493 3 492 3v42c0 103-59 246-137 336-95 109-227 181-366 200-86 12-338 12-457 1zM20942 5149l3-1594 21-45c50-105 94-120 355-120h199v1568c0 1687 2 1619-50 1693-14 18-47 43-79 57-53 25-67 26-254 30l-197 4 2-1593zM22449 6730c-63-11-123-44-149-80-42-58-50-111-50-312v-188h644c612 0 647-1 707-20 84-26 131-66 170-146 29-59 33-77 37-172 8-208-54-327-198-382-26-10-135-15-410-20-341-6-382-9-455-29-313-84-560-335-642-650-31-122-35-321-8-446 60-283 274-539 539-645 158-64 168-64 746-65 574 0 570 0 638 59 65 57 75 95 80 323l5 202-614 3-614 3-50 23c-65 30-98 63-127 126-20 45-23 66-22 181 0 101 4 138 17 168 29 62 83 114 145 138 54 21 78 23 427 29 396 7 412 9 547 66 140 58 323 211 417 347 123 179 179 427 151 662-27 226-110 398-269 556-129 128-267 208-433 251-79 20-107 21-633 24-302 1-571-1-596-6zM20943 2985c2-240 4-264 24-306 24-53 70-92 128-108 22-6 125-11 233-11h192v520h-202c-117 0-220 5-243 11-47 13-110 75-124 122-7 22-10-45-8-228z"/>
  </g>
  <path
    d="M3466 7914c-328-51-639-184-1161-499-803-483-1785-1094-1901-1181-215-162-328-327-381-559-17-76-18-162-18-1620 0-847 3-1586 7-1642 30-434 264-726 743-926 33-13 70-28 82-31l22-7 4 1788c3 1630 5 1796 20 1873 74 369 209 507 932 945 538 326 647 393 920 565 378 238 499 312 592 358 397 200 730 64 845-344l23-79 3-1022 3-1023H3060v585c0 322-3 585-6 585-24 0-381-128-458-164-315-147-449-331-497-686-17-120-25-3707-9-3800 30-170 175-381 383-556 608-511 1214-599 1926-280 166 75 271 135 626 356 165 102 478 294 695 425 805 486 1046 637 1162 732 184 150 300 329 355 551 15 61 17 205 21 1567 3 1518 0 1697-33 1857-79 378-303 631-704 794l-106 44-5-1723c-6-1702-6-1723-27-1812-45-194-108-339-216-500-74-110-288-326-403-407-211-150-1508-924-1761-1052-169-85-310-120-451-114-204 10-336 108-421 311-67 163-65 116-68 1235l-4 1012h1141V2310l23 5c232 51 355 89 482 152 259 127 394 311 452 615 15 74 17 299 20 1996 4 2109 8 1964-57 2099-105 215-592 562-960 683-201 66-477 88-694 54z"
    style="transform:none" fill="#EC642A"/>
</svg>
